<svg width="24" height="24" viewBox="0 0 24 24" fill="none" xmlns="http://www.w3.org/2000/svg">
<path d="M18.6784 13.369C18.1564 12.3505 17.2524 11.7139 15.9919 11.4592C15.89 11.4337 15.7882 11.4337 15.6863 11.421L15.5463 11.4083C15.4571 11.3955 15.3426 11.3828 15.1516 11.3828H15.0497H12.9999V9.34568C12.9999 9.07831 12.9871 8.93826 12.9744 8.8364L12.9617 8.69635C12.9489 8.59449 12.9362 8.4799 12.9235 8.39078C12.6688 7.1303 12.0322 6.21359 11.0136 5.7043C10.237 5.30961 9.52399 5.29688 9.51126 5.29688H9.39667C9.19296 5.29688 9.0529 5.30961 8.87465 5.33507C5.53885 5.7807 5.57704 8.98918 5.58977 9.1165V15.0497C5.58977 16.2465 5.92081 17.1887 6.55741 17.8507C7.21948 18.4873 8.16166 18.8056 9.34574 18.8056H15.3171C15.6481 18.8056 18.6402 18.7165 19.0731 15.5208C19.0985 15.317 19.1113 15.1515 19.1113 14.8841C19.0985 14.8714 19.0858 14.1584 18.6784 13.369Z" fill="#EE3124"/>
<path d="M20.7406 18.3469C19.6966 20.295 17.5703 20.9952 16.9464 21.1607C16.5772 21.2626 16.2589 21.3008 15.6605 21.339H15.6477H8.50504C8.50504 21.339 8.02122 21.339 7.52467 21.2117C7.1809 21.1225 6.74801 20.9825 6.39151 20.8297C5.97135 20.6387 5.48753 20.3714 4.82547 19.7093L4.72361 19.6074C4.20159 19.0727 3.69231 18.3215 3.43767 17.6849C3.29761 17.3284 3.24668 17.1501 3.17029 16.8064C3.0557 16.3353 3.0557 15.826 3.0557 15.7878V8.73422C3.0939 8.12308 3.14483 7.79204 3.23395 7.43555C3.39947 6.81167 4.087 4.68541 6.04775 3.64138C7.15544 3.01751 8.2886 2.6992 9.42175 2.6992C11.166 2.6992 12.3119 3.46313 12.3501 3.50133C15.4313 5.36021 15.5204 8.42865 15.5204 8.86154C15.9661 8.84881 19.0218 8.93793 20.8934 12.0573C20.9061 12.0573 22.7523 14.7692 20.7406 18.3469ZM20.4096 0H3.60318C1.61698 0 0 1.61698 0 3.60318V20.3968C0 22.383 1.61698 24 3.60318 24H20.3968C22.383 24 24 22.383 24 20.3968V3.61591C24.0127 1.61698 22.3958 0 20.4096 0Z" fill="#EE3124"/>
</svg>
