<svg width="24" height="24" viewBox="0 0 24 24" fill="none" xmlns="http://www.w3.org/2000/svg">
<path d="M21.7267 6.76732C21.8001 6.76732 21.8001 6.76732 21.8731 6.76732L20.7734 2.51481C20.4801 1.26787 19.1598 0.534565 17.9865 0.901217L1.70785 5.22771C0.46123 5.52103 -0.272074 6.84098 0.094578 8.01427L1.48786 13.2941V10.1409C1.48786 8.23491 3.0278 6.69498 4.93439 6.69498H21.7267V6.76732Z" fill="#F79210"/>
<path d="M21.7268 7.94043H4.86081C3.61419 7.94043 2.58789 8.96738 2.58789 10.2137V20.9193C2.58789 22.1665 3.61452 23.1925 4.86081 23.1925H21.7268C22.9734 23.1925 23.9997 22.1656 23.9997 20.9193V10.2143C24.0004 8.96706 22.9734 7.94043 21.7268 7.94043ZM22.4604 20.9202C22.4604 21.3606 22.0941 21.6532 21.7275 21.6532H4.86146C4.42148 21.6532 4.12848 21.2869 4.12848 20.9199V18.2073H22.5341V20.9199L22.4604 20.9202ZM22.4604 12.9272H4.12783V10.2143C4.12783 9.77402 4.49448 9.48102 4.86081 9.48102H21.7268C22.1671 9.48102 22.4598 9.84768 22.4598 10.2143L22.4604 12.9272Z" fill="#F79210"/>
</svg>
