<svg width="23" height="24" viewBox="0 0 23 24" fill="none" xmlns="http://www.w3.org/2000/svg">
<path d="M9.7473 17.0125L7.34386 13.759C6.98779 13.2738 6.37358 12.6374 6.37358 12.0009C6.37358 11.3644 6.98334 10.7235 7.34386 10.2206L9.7473 6.96257C9.84248 6.83107 9.95474 6.71282 10.0811 6.61095V2.86336C10.0811 -0.149851 8.82153 -0.906491 7.28155 1.17649L2.08744 8.20879C1.31744 9.25474 0 10.6256 0 12.0009C0 13.3762 1.33525 14.7471 2.08744 15.793L7.27265 22.803C8.81263 24.886 10.0722 24.1383 10.0722 21.1206V17.3686C9.94374 17.2673 9.83121 17.1473 9.7384 17.0125" fill="#0E86C8"/>
<path d="M19.9311 8.20902L14.7459 1.19452C13.2059 -0.892913 11.9463 -0.140726 11.9463 2.88138V6.62898C12.0722 6.72996 12.1831 6.84835 12.2756 6.98059L14.6835 10.2386C15.0441 10.7237 15.6538 11.3647 15.6538 12.0189C15.6538 12.6732 15.0441 13.2919 14.6835 13.777L12.2756 17.0306C12.1829 17.1653 12.0721 17.2866 11.9463 17.3911V21.1387C11.9463 24.1563 13.2059 24.9041 14.7459 22.8211L19.9311 15.811C20.7011 14.7606 22.0185 13.3853 22.0185 12.0145C22.0185 10.6436 20.6833 9.27277 19.9311 8.22683" fill="#252C57"/>
</svg>
