<svg width="52" height="52" viewBox="0 0 52 52" fill="none" xmlns="http://www.w3.org/2000/svg">
<path d="M48.75 25.5938C48.3009 25.5938 47.9375 25.9575 47.9375 26.4063H4.0625C4.0625 25.9575 3.69911 25.5938 3.25 25.5938C2.80089 25.5938 2.4375 25.9575 2.4375 26.4063V47.5313C2.4375 49.7712 4.26004 51.5938 6.5 51.5938H45.5C47.74 51.5938 49.5625 49.7712 49.5625 47.5313V26.4063C49.5625 25.9575 49.1991 25.5938 48.75 25.5938Z" fill="#FFEE43"/>
<path d="M48.75 16.6562H3.25C1.45762 16.6562 0 18.1142 0 19.9062V24.7812C0 26.5733 1.45762 28.0312 3.25 28.0312H48.75C50.5424 28.0312 52 26.5733 52 24.7812V19.9062C52 18.1142 50.5424 16.6562 48.75 16.6562Z" fill="#FFD100"/>
<path d="M29.25 15.8438H22.75V51.5938H29.25V15.8438Z" fill="#FF4F19"/>
<path d="M22.75 41.3682L29.25 47.8682V45.5703L22.75 39.0703V41.3682Z" fill="#E7001E"/>
<path d="M22.75 37.3057L29.25 43.8057V41.5078L22.75 35.0078V37.3057Z" fill="#E7001E"/>
<path d="M29.25 23.4927V21.1949L23.899 15.8438H22.75V16.9927L29.25 23.4927Z" fill="#E7001E"/>
<path d="M22.75 33.2432L29.25 39.7432V37.4453L22.75 30.9453V33.2432Z" fill="#E7001E"/>
<path d="M22.75 43.1328V45.4307L28.9136 51.5942H29.25V49.6328L22.75 43.1328Z" fill="#E7001E"/>
<path d="M22.75 29.1807L29.25 35.6807V33.3828L22.75 26.8828V29.1807Z" fill="#E7001E"/>
<path d="M22.75 21.0557L29.25 27.5557V25.2578L22.75 18.7578V21.0557Z" fill="#E7001E"/>
<path d="M27.149 51.5942L22.75 47.1953V49.4932L24.8511 51.5942H27.149Z" fill="#E7001E"/>
<path d="M22.75 25.1182L29.25 31.6182V29.3203L22.75 22.8203V25.1182Z" fill="#E7001E"/>
<path d="M43.0624 29.6531C39.8544 29.6531 37.9636 26.3082 36.1355 23.0734C34.7814 20.6781 33.3909 18.2246 31.3768 17.1788C35.1996 15.6888 40.0102 13.6285 41.4462 12.1927C44.1393 9.50005 44.1393 5.11865 41.4462 2.42602C38.7532 -0.267008 34.3718 -0.267008 31.6788 2.42602C30.0035 4.10089 27.477 10.3725 25.9999 14.3063C24.5228 10.3726 21.9963 4.10089 20.3211 2.42602C17.6281 -0.267008 13.2467 -0.267008 10.5537 2.42602C7.86063 5.11865 7.86063 9.50005 10.5537 12.1927C11.9897 13.6285 16.8002 15.6888 20.6231 17.1788C18.6089 18.2246 17.2185 20.6781 15.8644 23.0734C14.0362 26.3083 12.1455 29.6531 8.9375 29.6531C8.26465 29.6531 7.71875 30.1986 7.71875 30.8718C7.71875 31.5451 8.26465 32.0906 8.9375 32.0906C13.5673 32.0906 15.9151 27.9372 17.9861 24.2726C19.4929 21.6078 20.9156 19.0906 22.75 19.0906V19.0937H29.25V19.0906C31.0845 19.0906 32.5071 21.6078 34.0139 24.2726C36.0848 27.9372 38.4327 32.0906 43.0625 32.0906C43.7353 32.0906 44.2812 31.5451 44.2812 30.8718C44.2812 30.1986 43.7352 29.6531 43.0624 29.6531ZM33.4021 4.14934C34.2733 3.27813 35.4175 2.84294 36.5624 2.84294C37.7066 2.84294 38.8515 3.27854 39.7227 4.14934C41.4651 5.89174 41.4651 8.72676 39.7227 10.4693C38.4817 11.7103 32.6364 14.1334 28.0272 15.8446C29.7379 11.2354 32.1611 5.39033 33.4021 4.14934ZM12.2771 4.14934C13.1483 3.27813 14.2925 2.84294 15.4374 2.84294C16.5816 2.84294 17.7265 3.27854 18.5977 4.14934C19.8387 5.39033 22.2619 11.2354 23.9726 15.8445C19.3634 14.1333 13.518 11.7102 12.2771 10.4692C10.5347 8.72686 10.5347 5.89184 12.2771 4.14934Z" fill="#E7001E"/>
</svg>
