<svg width="37" height="39" viewBox="0 0 37 39" fill="none" xmlns="http://www.w3.org/2000/svg">
<path d="M14.25 16.1036C14.25 14.7787 13.2424 13.7043 12 13.7043H10.875C8.38945 13.7043 6.375 15.8524 6.375 18.503V22.102C6.375 24.7525 8.38945 26.9007 10.875 26.9007H12C13.2424 26.9007 14.25 25.8263 14.25 24.5014V16.1036ZM26.625 26.9007C29.1105 26.9007 31.125 24.7525 31.125 22.102V18.503C31.125 15.8524 29.1105 13.7043 26.625 13.7043H25.5C24.2576 13.7043 23.25 14.7787 23.25 16.1036V24.5014C23.25 25.8263 24.2576 26.9007 25.5 26.9007H26.625ZM18.75 0.507812C8.70797 0.507812 1.07203 9.41767 0.75 19.7026V20.9023C0.75 21.5651 1.25344 22.102 1.875 22.102H3C3.62156 22.102 4.125 21.5651 4.125 20.9023V19.7026C4.125 11.1032 10.6859 4.10684 18.75 4.10684C26.8141 4.10684 33.375 11.1032 33.375 19.7026H33.3666C33.3722 19.8848 33.375 32.1283 33.375 32.1283C33.375 33.8791 32.044 35.2985 30.4022 35.2985H23.25C23.25 33.3107 21.739 31.6994 19.875 31.6994H17.625C15.761 31.6994 14.25 33.3107 14.25 35.2985C14.25 37.2862 15.761 38.8975 17.625 38.8975H30.4022C33.908 38.8975 36.75 35.8668 36.75 32.1283V19.7026C36.428 9.41767 28.792 0.507812 18.75 0.507812Z" fill="#F79210"/>
</svg>
