<svg width="52" height="52" viewBox="0 0 52 52" fill="none" xmlns="http://www.w3.org/2000/svg">
<path d="M36.9391 0H15.0605C12.9666 0 11.2764 1.69784 11.2764 3.78792V48.2159C11.2764 50.3041 12.9666 52 15.0605 52H36.9391C39.0292 52 40.7232 50.3041 40.7232 48.2159V3.78792C40.7232 1.69784 39.0292 0 36.9391 0ZM20.6012 2.30042H31.4022C31.675 2.30042 31.8967 2.70782 31.8967 3.21187C31.8967 3.71591 31.675 4.12521 31.4022 4.12521H20.6012C20.3264 4.12521 20.1085 3.71591 20.1085 3.21187C20.1085 2.70782 20.3264 2.30042 20.6012 2.30042ZM26.0017 48.2614C24.6696 48.2614 23.5857 47.1775 23.5857 45.8435C23.5857 44.5094 24.6696 43.4293 26.0017 43.4293C27.33 43.4293 28.4139 44.5094 28.4139 45.8435C28.4139 47.1775 27.33 48.2614 26.0017 48.2614ZM37.8884 39.9825H14.113V6.39152H37.8884V39.9825Z" fill="black"/>
</svg>
